<svg width="30" height="30" viewBox="0 0 30 30" fill="none" xmlns="http://www.w3.org/2000/svg">
    <g clip-path="url(#clip0_420_4746)">
        <path
            d="M15 28.374C22.3863 28.374 28.374 22.3863 28.374 15C28.374 7.61374 22.3863 1.626 15 1.626C7.61374 1.626 1.626 7.61374 1.626 15C1.626 22.3863 7.61374 28.374 15 28.374Z"
            fill="url(#paint0_radial_420_4746)" />
        <path
            d="M19.0971 26.1354C25.247 23.8727 28.3982 17.0529 26.1354 10.9031C23.8727 4.75322 17.053 1.60206 10.9032 3.86476C4.7533 6.12746 1.60214 12.9472 3.86484 19.097C6.12755 25.2469 12.9473 28.3981 19.0971 26.1354Z"
            fill="white" />
        <path
            d="M15 25.578C20.8421 25.578 25.578 20.8421 25.578 15C25.578 9.15793 20.8421 4.422 15 4.422C9.15793 4.422 4.422 9.15793 4.422 15C4.422 20.8421 9.15793 25.578 15 25.578Z"
            fill="#EA5455" />
        <path
            d="M19.8241 23.0315C24.1932 20.0396 25.3097 14.0724 22.3179 9.70321C19.3261 5.33406 13.3588 4.21753 8.98962 7.20937C4.62046 10.2012 3.50393 16.1685 6.49578 20.5377C9.48763 24.9068 15.4549 26.0233 19.8241 23.0315Z"
            fill="white" />
        <path
            d="M19.579 23.235C24.0721 20.4327 25.4427 14.5186 22.6404 10.0256C19.8382 5.5325 13.9241 4.16184 9.43106 6.96412C4.938 9.76639 3.56734 15.6804 6.36962 20.1735C9.17189 24.6666 15.0859 26.0372 19.579 23.235Z"
            fill="white" />
        <path
            d="M17.6171 24.1792C22.6439 22.5149 25.3698 17.0906 23.7055 12.0638C22.0411 7.03697 16.6169 4.3111 11.5901 5.97542C6.56322 7.63973 3.83736 13.064 5.50168 18.0908C7.16599 23.1177 12.5902 25.8435 17.6171 24.1792Z"
            fill="white" />
        <path
            d="M17.6674 24.1791C22.7032 22.5418 25.4583 17.1322 23.821 12.0964C22.1837 7.06052 16.774 4.30546 11.7382 5.94277C6.70235 7.58008 3.9473 12.9897 5.58461 18.0256C7.22192 23.0614 12.6316 25.8165 17.6674 24.1791Z"
            fill="white" />
        <path
            d="M20.0484 23.064C24.4801 20.1659 25.7232 14.2239 22.8251 9.7923C19.927 5.36066 13.985 4.1175 9.5534 7.01562C5.12176 9.91374 3.8786 15.8557 6.77672 20.2873C9.67484 24.719 15.6168 25.9621 20.0484 23.064Z"
            fill="white" />
        <path
            d="M19.9756 23.1566C24.4687 20.3543 25.8393 14.4403 23.0371 9.94722C20.2348 5.45416 14.3207 4.0835 9.82767 6.88577C5.3346 9.68805 3.96395 15.6021 6.76622 20.0952C9.5685 24.5882 15.4825 25.9589 19.9756 23.1566Z"
            fill="white" />
        <path
            d="M17.1709 24.3395C22.3286 23.1401 25.5373 17.9867 24.338 12.8291C23.1386 7.67144 17.9852 4.46265 12.8276 5.66204C7.66994 6.86143 4.46115 12.0148 5.66054 17.1724C6.85992 22.3301 12.0133 25.5388 17.1709 24.3395Z"
            fill="white" />
        <path
            d="M15 24.885C20.4593 24.885 24.885 20.4593 24.885 15C24.885 9.54067 20.4593 5.115 15 5.115C9.54066 5.115 5.115 9.54067 5.115 15C5.115 20.4593 9.54066 24.885 15 24.885Z"
            fill="#EA5455" />
        <path opacity="0.2"
            d="M23.8742 14.7516C24.1766 10.137 20.681 6.15097 16.0664 5.84854C11.4518 5.54611 7.4658 9.04179 7.16337 13.6564C6.86094 18.2709 10.3566 22.2569 14.9712 22.5594C19.5858 22.8618 23.5718 19.3661 23.8742 14.7516Z"
            fill="white" />
    </g>
    <defs>
        <radialGradient id="paint0_radial_420_4746" cx="0" cy="0" r="1" gradientUnits="userSpaceOnUse"
            gradientTransform="translate(15 15) scale(13.374)">
            <stop />
            <stop offset="0.0849" stop-color="#090909" />
            <stop offset="0.2223" stop-color="#212121" />
            <stop offset="0.395" stop-color="#484848" />
            <stop offset="0.5962" stop-color="#7E7E7E" />
            <stop offset="0.8186" stop-color="#C2C2C2" />
            <stop offset="1" stop-color="white" />
        </radialGradient>
        <clipPath id="clip0_420_4746">
            <rect width="30" height="30" fill="white" />
        </clipPath>
    </defs>
</svg>